# xmcd CD database file
#
# Track frame offsets:
#	150
#	29547
#	50215
#	69966
#	93852
#	117888
#	135433
#	165723
#	184329
#	202724
#
# Disc length: 2942 seconds
#
# Revision: 0
# Processed by: cddbd v1.5.2PL0 Copyright (c) Steve Scherf et al.
# Submitted via: CDex 1.51
#
DISCID=830b7c0a
DTITLE=Miwon - A To B
DYEAR=2008
DGENRE=Jazz
TTITLE0=Shinkansen
TTITLE1=A To B
TTITLE2=Matchbox
TTITLE3=Round And Round
TTITLE4=More Guitar On The Monitor, Please
TTITLE5=Lillilullaby
TTITLE6=They Leave In Autumn
TTITLE7=Another Term For
TTITLE8=Kisses To Cure
TTITLE9=Daylight Promise
EXTD=YEAR: 2008
EXTT0=
EXTT1=
EXTT2=
EXTT3=
EXTT4=
EXTT5=
EXTT6=
EXTT7=
EXTT8=
EXTT9=
PLAYORDER=
